<svg xmlns="http://www.w3.org/2000/svg" width="20" height="20" fill="none"><path fill="#666" d="M14.08 8h-1.057a2.196 2.196 0 0 0-.89-1.38 2.387 2.387 0 0 0-.73-.359 2.91 2.91 0 0 0-.835-.119c-.528 0-1.007.134-1.436.4-.426.268-.766.661-1.018 1.181-.25.52-.375 1.158-.375 1.913 0 .756.125 1.394.375 1.914.252.52.592.913 1.018 1.18.43.267.908.4 1.436.4.29 0 .568-.04.835-.119.268-.08.51-.197.73-.353a2.245 2.245 0 0 0 .89-1.385h1.056a3.52 3.52 0 0 1-.434 1.197 3.273 3.273 0 0 1-1.837 1.458c-.386.127-.8.191-1.24.191-.744 0-1.406-.181-1.986-.545-.58-.364-1.035-.88-1.368-1.551-.332-.67-.498-1.466-.498-2.387 0-.92.166-1.716.498-2.386.333-.67.789-1.188 1.368-1.551.58-.364 1.242-.546 1.986-.546.44 0 .854.064 1.24.192.39.128.74.316 1.053.563.312.244.574.542.784.895.21.349.355.748.434 1.197z"/><circle cx="10" cy="10" r="9.5" stroke="#666"/></svg>