<svg width="100" height="144" viewBox="0 0 100 144" fill="none" xmlns="http://www.w3.org/2000/svg">
<path d="M49.72 48.14C37.9 35.37 34.33 14.63 44.81 0.0500031C44.57 3.27 44.44 6.58 45.48 9.7C48.63 19.44 55.04 27.75 61.93 35.26C67.11 40.88 71.2 47.56 73.01 54.99C75.86 65.21 74.06 76.48 68.06 85.29C68.49 81.93 68.45 78.48 67.35 75.22C64.01 64.84 56.95 56.18 49.72 48.14Z" fill="white"/>
<path d="M21.89 58.05C14.43 41.9 17.08 21.68 29.1 8.3C26.07 14.18 27.82 20.95 30.19 26.72C34.61 37.33 42.17 46.28 50.16 54.5C56.23 60.72 61.13 68.19 63.3 76.6C67.41 91.16 64.21 107.71 54.17 119.31C57.47 109.11 51.97 98.92 46.72 90.38C39.7 78.66 27.39 70.74 21.89 58.05Z" fill="white"/>
<path d="M76.65 52.3C88.78 59.96 96.83 73.15 98.95 87.04C101.38 101.96 96.61 118.04 85.81 128.94C76.98 138.29 64 143.74 50.99 143.46C38.7 143.59 26.64 138.6 17.67 130.46C7.15 120.92 0.859995 106.99 0.949995 92.91C0.709995 79.69 6.04 66.15 16.03 57.14C17.36 61.16 19.34 64.94 21.57 68.55C15.81 75.32 12.53 84.12 12.72 92.94C12.56 104.94 18.61 116.69 28.29 123.94C37.39 130.83 49.84 133.53 60.94 130.24C72 127.23 81.12 118.69 85.19 108.24C89.78 96.79 88.15 83.29 81.2 73.08C80.49 71.78 79.15 70.55 79.54 68.93C80.07 63.21 78.2 57.7 76.65 53.28V52.3Z" fill="#808080"/>
<path d="M41.3 89.05C46.06 96.37 50.61 104.34 51.13 113.18C51.75 118.64 47.81 124.5 42.23 125.56C35.69 126.52 29.66 119.2 32.48 113.18C34.98 109.05 39.32 106.13 41.15 101.57C43 97.6 41.98 93.16 41.3 89.05Z" fill="#808080"/>
</svg>
